<svg xmlns="http://www.w3.org/2000/svg" xmlns:xlink="http://www.w3.org/1999/xlink" width="800" zoomAndPan="magnify" viewBox="0 0 600 599.999999" height="800" preserveAspectRatio="xMidYMid meet" version="1.0"><defs><clipPath id="a5cbff9ff2"><path d="M 221.554688 0 L 523.054688 0 L 523.054688 600 L 221.554688 600 Z M 221.554688 0 " clip-rule="nonzero"/></clipPath><clipPath id="633d87912d"><path d="M 236.433594 132.417969 L 506 132.417969 L 506 232.234375 L 236.433594 232.234375 Z M 236.433594 132.417969 " clip-rule="nonzero"/></clipPath><clipPath id="f76c9dec1e"><path d="M 236.433594 482.382812 L 506 482.382812 L 506 582.195312 L 236.433594 582.195312 Z M 236.433594 482.382812 " clip-rule="nonzero"/></clipPath><clipPath id="8f82e1fe7f"><path d="M 236.433594 365.785156 L 506 365.785156 L 506 465.597656 L 236.433594 465.597656 Z M 236.433594 365.785156 " clip-rule="nonzero"/></clipPath><clipPath id="f0645b08c8"><path d="M 236.433594 249.101562 L 506 249.101562 L 506 348.914062 L 236.433594 348.914062 Z M 236.433594 249.101562 " clip-rule="nonzero"/></clipPath><clipPath id="e1069def28"><path d="M 4 167.070312 L 180 167.070312 L 180 435.570312 L 4 435.570312 Z M 4 167.070312 " clip-rule="nonzero"/></clipPath></defs><g clip-path="url(#a5cbff9ff2)"><path fill="#00bf63" d="M 224.882812 596.511719 L 224.882812 3.492188 L 519.730469 3.492188 L 519.730469 596.511719 Z M 523.042969 0.179688 L 221.570312 0.179688 L 221.570312 599.820312 L 523.042969 599.820312 L 523.042969 0.179688 " fill-opacity="1" fill-rule="nonzero"/></g><g clip-path="url(#633d87912d)"><path fill="#00bf63" d="M 236.433594 132.417969 L 505.289062 132.417969 L 505.289062 235.21875 L 236.433594 235.21875 Z M 236.433594 132.417969 " fill-opacity="1" fill-rule="nonzero"/></g><g clip-path="url(#f76c9dec1e)"><path fill="#00bf63" d="M 236.433594 482.382812 L 505.289062 482.382812 L 505.289062 585.179688 L 236.433594 585.179688 Z M 236.433594 482.382812 " fill-opacity="1" fill-rule="nonzero"/></g><g clip-path="url(#8f82e1fe7f)"><path fill="#00bf63" d="M 236.433594 365.785156 L 505.289062 365.785156 L 505.289062 468.582031 L 236.433594 468.582031 Z M 236.433594 365.785156 " fill-opacity="1" fill-rule="nonzero"/></g><g clip-path="url(#f0645b08c8)"><path fill="#00bf63" d="M 236.433594 249.101562 L 505.289062 249.101562 L 505.289062 351.898438 L 236.433594 351.898438 Z M 236.433594 249.101562 " fill-opacity="1" fill-rule="nonzero"/></g><g clip-path="url(#e1069def28)"><path fill="#00bf63" d="M 92.175781 167.570312 C 88.800781 193.457031 79.21875 218.519531 64.453125 240.070312 C 55.273438 253.460938 44.199219 265.429688 33.988281 278.058594 C 23.78125 290.683594 14.300781 304.226562 9.007812 319.566406 C -0.0390625 345.78125 4.488281 376.25 20.707031 398.769531 C 36.921875 421.285156 64.378906 435.285156 92.171875 435.285156 C 119.96875 435.285156 147.425781 421.285156 163.640625 398.769531 C 179.859375 376.25 184.386719 345.78125 175.339844 319.566406 C 170.046875 304.226562 160.566406 290.683594 150.359375 278.058594 C 140.148438 265.429688 129.074219 253.460938 119.894531 240.070312 C 105.128906 218.519531 95.546875 193.457031 92.171875 167.570312 Z M 92.175781 167.570312 " fill-opacity="1" fill-rule="nonzero"/></g><path fill="#ffffff" d="M 63.808594 266.265625 C 61.527344 267.984375 59.347656 269.835938 57.269531 271.796875 C 59.386719 269.878906 61.566406 268.035156 63.808594 266.265625 Z M 57.269531 271.796875 C 45.570312 282.394531 35.84375 295.15625 28.765625 309.25 C 21.117188 324.476562 16.53125 341.652344 18.488281 358.566406 C 20.292969 374.203125 27.804688 389.121094 39.300781 399.902344 L 53.191406 381.550781 C 46.46875 374.210938 41.167969 365.582031 37.660156 356.277344 C 31.757812 340.601562 31.078125 323.019531 35.746094 306.9375 C 39.625 293.59375 47.167969 281.347656 57.269531 271.796875 Z M 56.75 384.722656 L 42.925781 403.171875 C 45.96875 406.828125 49.375 410.183594 53.070312 413.183594 C 55.851562 415.441406 58.804688 417.496094 61.890625 419.328125 L 77.59375 399.644531 C 71.082031 396.027344 64.929688 391.761719 59.261719 386.929688 C 58.414062 386.207031 57.574219 385.472656 56.75 384.722656 Z M 56.75 384.722656 " fill-opacity="1" fill-rule="nonzero"/></svg>