<svg xmlns="http://www.w3.org/2000/svg" xmlns:xlink="http://www.w3.org/1999/xlink" width="800" zoomAndPan="magnify" viewBox="0 0 600 599.999999" height="800" preserveAspectRatio="xMidYMid meet" version="1.0"><defs><clipPath id="e06efbc6ed"><path d="M 298.5 0 L 600 0 L 600 600 L 298.5 600 Z M 298.5 0 " clip-rule="nonzero"/></clipPath><clipPath id="56b4b24c84"><path d="M 410.535156 414 L 487.785156 414 L 487.785156 492.121094 L 410.535156 492.121094 Z M 410.535156 414 " clip-rule="nonzero"/></clipPath><clipPath id="3e8fde9cd7"><path d="M 410.535156 66.121094 L 487.785156 66.121094 L 487.785156 389 L 410.535156 389 Z M 410.535156 66.121094 " clip-rule="nonzero"/></clipPath><clipPath id="d3c9c0de8c"><path d="M 81 167.070312 L 257 167.070312 L 257 435.570312 L 81 435.570312 Z M 81 167.070312 " clip-rule="nonzero"/></clipPath></defs><g clip-path="url(#e06efbc6ed)"><path fill="#ff3131" d="M 301.824219 596.511719 L 301.824219 3.492188 L 596.675781 3.492188 L 596.675781 596.511719 Z M 599.988281 0.179688 L 298.511719 0.179688 L 298.511719 599.820312 L 599.988281 599.820312 L 599.988281 0.179688 " fill-opacity="1" fill-rule="nonzero"/></g><g clip-path="url(#56b4b24c84)"><path fill="#ff3131" d="M 487.785156 453.394531 C 487.785156 454.660156 487.722656 455.925781 487.601562 457.1875 C 487.476562 458.453125 487.289062 459.703125 487.042969 460.949219 C 486.796875 462.191406 486.488281 463.421875 486.121094 464.636719 C 485.753906 465.847656 485.328125 467.042969 484.84375 468.214844 C 484.359375 469.386719 483.820312 470.53125 483.226562 471.648438 C 482.628906 472.765625 481.980469 473.855469 481.277344 474.910156 C 480.574219 475.964844 479.820312 476.980469 479.019531 477.960938 C 478.214844 478.941406 477.367188 479.878906 476.472656 480.777344 C 475.578125 481.675781 474.640625 482.523438 473.664062 483.328125 C 472.6875 484.132812 471.671875 484.886719 470.621094 485.59375 C 469.566406 486.296875 468.484375 486.949219 467.367188 487.546875 C 466.253906 488.144531 465.109375 488.6875 463.941406 489.171875 C 462.773438 489.65625 461.582031 490.085938 460.371094 490.453125 C 459.164062 490.820312 457.9375 491.128906 456.695312 491.375 C 455.457031 491.625 454.207031 491.808594 452.945312 491.933594 C 451.6875 492.058594 450.425781 492.121094 449.160156 492.121094 C 447.894531 492.121094 446.632812 492.058594 445.375 491.933594 C 444.117188 491.808594 442.867188 491.625 441.625 491.375 C 440.382812 491.128906 439.160156 490.820312 437.949219 490.453125 C 436.738281 490.085938 435.546875 489.65625 434.378906 489.171875 C 433.210938 488.6875 432.070312 488.144531 430.953125 487.546875 C 429.835938 486.949219 428.753906 486.296875 427.703125 485.59375 C 426.648438 484.886719 425.636719 484.132812 424.65625 483.328125 C 423.679688 482.523438 422.742188 481.675781 421.847656 480.777344 C 420.953125 479.878906 420.105469 478.941406 419.304688 477.960938 C 418.5 476.980469 417.746094 475.964844 417.046875 474.910156 C 416.34375 473.855469 415.691406 472.765625 415.097656 471.648438 C 414.5 470.53125 413.960938 469.386719 413.476562 468.214844 C 412.992188 467.042969 412.566406 465.847656 412.199219 464.636719 C 411.832031 463.421875 411.523438 462.191406 411.277344 460.949219 C 411.03125 459.703125 410.84375 458.453125 410.722656 457.1875 C 410.597656 455.925781 410.535156 454.660156 410.535156 453.394531 C 410.535156 452.125 410.597656 450.859375 410.722656 449.597656 C 410.84375 448.335938 411.03125 447.082031 411.277344 445.835938 C 411.523438 444.59375 411.832031 443.363281 412.199219 442.152344 C 412.566406 440.9375 412.992188 439.746094 413.476562 438.574219 C 413.960938 437.402344 414.5 436.257812 415.097656 435.136719 C 415.691406 434.019531 416.34375 432.933594 417.046875 431.878906 C 417.746094 430.824219 418.5 429.804688 419.304688 428.824219 C 420.105469 427.84375 420.953125 426.90625 421.847656 426.007812 C 422.742188 425.113281 423.679688 424.261719 424.65625 423.457031 C 425.636719 422.652344 426.648438 421.898438 427.703125 421.191406 C 428.753906 420.488281 429.835938 419.835938 430.953125 419.238281 C 432.070312 418.640625 433.210938 418.097656 434.378906 417.613281 C 435.546875 417.128906 436.738281 416.703125 437.949219 416.332031 C 439.160156 415.964844 440.382812 415.65625 441.625 415.410156 C 442.867188 415.164062 444.117188 414.976562 445.375 414.851562 C 446.632812 414.730469 447.894531 414.667969 449.160156 414.667969 C 450.425781 414.667969 451.6875 414.730469 452.945312 414.851562 C 454.207031 414.976562 455.457031 415.164062 456.695312 415.410156 C 457.9375 415.65625 459.164062 415.964844 460.371094 416.332031 C 461.582031 416.703125 462.773438 417.128906 463.941406 417.613281 C 465.109375 418.097656 466.253906 418.640625 467.367188 419.238281 C 468.484375 419.835938 469.566406 420.488281 470.621094 421.191406 C 471.671875 421.898438 472.6875 422.652344 473.664062 423.457031 C 474.640625 424.261719 475.578125 425.113281 476.472656 426.007812 C 477.367188 426.90625 478.214844 427.84375 479.019531 428.824219 C 479.820312 429.804688 480.574219 430.824219 481.277344 431.878906 C 481.980469 432.933594 482.628906 434.019531 483.226562 435.136719 C 483.820312 436.257812 484.359375 437.402344 484.84375 438.574219 C 485.328125 439.746094 485.753906 440.9375 486.121094 442.152344 C 486.488281 443.363281 486.796875 444.59375 487.042969 445.835938 C 487.289062 447.082031 487.476562 448.335938 487.601562 449.597656 C 487.722656 450.859375 487.785156 452.125 487.785156 453.394531 Z M 487.785156 453.394531 " fill-opacity="1" fill-rule="nonzero"/></g><g clip-path="url(#3e8fde9cd7)"><path fill="#ff3131" d="M 487.785156 350.121094 C 487.785156 371.511719 470.480469 388.847656 449.160156 388.847656 C 427.828125 388.847656 410.535156 371.511719 410.535156 350.121094 L 410.535156 104.851562 C 410.535156 83.460938 427.828125 66.125 449.160156 66.125 C 470.480469 66.125 487.785156 83.460938 487.785156 104.851562 Z M 487.785156 350.121094 " fill-opacity="1" fill-rule="nonzero"/></g><g clip-path="url(#d3c9c0de8c)"><path fill="#ff3131" d="M 169.117188 167.570312 C 165.746094 193.457031 156.164062 218.519531 141.394531 240.070312 C 132.21875 253.460938 121.140625 265.429688 110.933594 278.058594 C 100.722656 290.683594 91.242188 304.226562 85.949219 319.566406 C 76.902344 345.78125 81.433594 376.25 97.648438 398.769531 C 113.867188 421.285156 141.324219 435.28125 169.117188 435.28125 C 196.910156 435.28125 224.367188 421.285156 240.585938 398.769531 C 256.804688 376.25 261.332031 345.78125 252.285156 319.566406 C 246.992188 304.226562 237.511719 290.683594 227.300781 278.058594 C 217.09375 265.429688 206.015625 253.460938 196.839844 240.070312 C 182.070312 218.519531 172.488281 193.457031 169.117188 167.570312 Z M 169.117188 167.570312 " fill-opacity="1" fill-rule="nonzero"/></g><path fill="#ffffff" d="M 140.75 266.261719 C 138.46875 267.984375 136.289062 269.835938 134.214844 271.796875 C 136.332031 269.878906 138.511719 268.035156 140.75 266.261719 Z M 134.214844 271.796875 C 122.515625 282.394531 112.785156 295.15625 105.707031 309.25 C 98.0625 324.476562 93.476562 341.652344 95.429688 358.566406 C 97.238281 374.203125 104.75 389.121094 116.246094 399.902344 L 130.132812 381.546875 C 123.414062 374.210938 118.109375 365.582031 114.605469 356.277344 C 108.703125 340.601562 108.019531 323.019531 112.691406 306.9375 C 116.566406 293.59375 124.113281 281.347656 134.214844 271.796875 Z M 133.691406 384.722656 L 119.867188 403.171875 C 122.914062 406.828125 126.316406 410.183594 130.011719 413.183594 C 132.796875 415.441406 135.746094 417.496094 138.832031 419.328125 L 154.539062 399.644531 C 148.023438 396.027344 141.875 391.761719 136.207031 386.929688 C 135.359375 386.207031 134.519531 385.472656 133.691406 384.722656 Z M 133.691406 384.722656 " fill-opacity="1" fill-rule="nonzero"/></svg>