<svg xmlns="http://www.w3.org/2000/svg" xmlns:xlink="http://www.w3.org/1999/xlink" width="800" zoomAndPan="magnify" viewBox="0 0 600 599.999999" height="800" preserveAspectRatio="xMidYMid meet" version="1.0"><defs><clipPath id="0d3fb23986"><path d="M 298.5 0 L 600 0 L 600 600 L 298.5 600 Z M 298.5 0 " clip-rule="nonzero"/></clipPath><clipPath id="00c1a6369b"><path d="M 313.375 132.417969 L 583 132.417969 L 583 232.234375 L 313.375 232.234375 Z M 313.375 132.417969 " clip-rule="nonzero"/></clipPath><clipPath id="9d868c26d5"><path d="M 313.375 482.382812 L 583 482.382812 L 583 582.195312 L 313.375 582.195312 Z M 313.375 482.382812 " clip-rule="nonzero"/></clipPath><clipPath id="df6dfe669a"><path d="M 313.375 365.785156 L 583 365.785156 L 583 465.597656 L 313.375 465.597656 Z M 313.375 365.785156 " clip-rule="nonzero"/></clipPath><clipPath id="14bd4a5743"><path d="M 313.375 249.101562 L 583 249.101562 L 583 348.914062 L 313.375 348.914062 Z M 313.375 249.101562 " clip-rule="nonzero"/></clipPath><clipPath id="d684031537"><path d="M 81 167.070312 L 257 167.070312 L 257 435.570312 L 81 435.570312 Z M 81 167.070312 " clip-rule="nonzero"/></clipPath></defs><g clip-path="url(#0d3fb23986)"><path fill="#00bf63" d="M 301.824219 596.511719 L 301.824219 3.492188 L 596.675781 3.492188 L 596.675781 596.511719 Z M 599.988281 0.179688 L 298.511719 0.179688 L 298.511719 599.820312 L 599.988281 599.820312 L 599.988281 0.179688 " fill-opacity="1" fill-rule="nonzero"/></g><g clip-path="url(#00c1a6369b)"><path fill="#00bf63" d="M 313.375 132.417969 L 582.230469 132.417969 L 582.230469 235.21875 L 313.375 235.21875 Z M 313.375 132.417969 " fill-opacity="1" fill-rule="nonzero"/></g><g clip-path="url(#9d868c26d5)"><path fill="#00bf63" d="M 313.375 482.382812 L 582.230469 482.382812 L 582.230469 585.179688 L 313.375 585.179688 Z M 313.375 482.382812 " fill-opacity="1" fill-rule="nonzero"/></g><g clip-path="url(#df6dfe669a)"><path fill="#00bf63" d="M 313.375 365.785156 L 582.230469 365.785156 L 582.230469 468.582031 L 313.375 468.582031 Z M 313.375 365.785156 " fill-opacity="1" fill-rule="nonzero"/></g><g clip-path="url(#14bd4a5743)"><path fill="#00bf63" d="M 313.375 249.101562 L 582.230469 249.101562 L 582.230469 351.898438 L 313.375 351.898438 Z M 313.375 249.101562 " fill-opacity="1" fill-rule="nonzero"/></g><g clip-path="url(#d684031537)"><path fill="#00bf63" d="M 169.117188 167.570312 C 165.746094 193.457031 156.164062 218.519531 141.394531 240.070312 C 132.21875 253.460938 121.140625 265.429688 110.933594 278.058594 C 100.722656 290.683594 91.242188 304.226562 85.949219 319.566406 C 76.902344 345.78125 81.433594 376.25 97.648438 398.769531 C 113.867188 421.285156 141.324219 435.285156 169.117188 435.285156 C 196.910156 435.285156 224.367188 421.285156 240.585938 398.769531 C 256.804688 376.25 261.332031 345.78125 252.285156 319.566406 C 246.992188 304.226562 237.511719 290.683594 227.300781 278.058594 C 217.09375 265.429688 206.015625 253.460938 196.839844 240.070312 C 182.070312 218.519531 172.488281 193.457031 169.117188 167.570312 Z M 169.117188 167.570312 " fill-opacity="1" fill-rule="nonzero"/></g><path fill="#ffffff" d="M 140.75 266.265625 C 138.46875 267.984375 136.289062 269.835938 134.214844 271.796875 C 136.332031 269.878906 138.511719 268.035156 140.75 266.265625 Z M 134.214844 271.796875 C 122.515625 282.394531 112.785156 295.15625 105.707031 309.25 C 98.0625 324.476562 93.476562 341.652344 95.429688 358.566406 C 97.238281 374.203125 104.75 389.121094 116.246094 399.902344 L 130.132812 381.550781 C 123.414062 374.210938 118.109375 365.582031 114.605469 356.277344 C 108.703125 340.601562 108.019531 323.019531 112.691406 306.9375 C 116.566406 293.59375 124.113281 281.347656 134.214844 271.796875 Z M 133.691406 384.722656 L 119.867188 403.171875 C 122.914062 406.828125 126.316406 410.183594 130.011719 413.183594 C 132.796875 415.441406 135.746094 417.496094 138.832031 419.328125 L 154.539062 399.644531 C 148.023438 396.027344 141.875 391.761719 136.207031 386.929688 C 135.359375 386.207031 134.519531 385.472656 133.691406 384.722656 Z M 133.691406 384.722656 " fill-opacity="1" fill-rule="nonzero"/></svg>