<svg xmlns="http://www.w3.org/2000/svg" xmlns:xlink="http://www.w3.org/1999/xlink" width="800" zoomAndPan="magnify" viewBox="0 0 600 599.999999" height="800" preserveAspectRatio="xMidYMid meet" version="1.0"><defs><clipPath id="8273f2dbb9"><path d="M 221.554688 0 L 523.054688 0 L 523.054688 600 L 221.554688 600 Z M 221.554688 0 " clip-rule="nonzero"/></clipPath><clipPath id="7b53dc391c"><path d="M 333.59375 414 L 410.84375 414 L 410.84375 492.121094 L 333.59375 492.121094 Z M 333.59375 414 " clip-rule="nonzero"/></clipPath><clipPath id="e9e1a6123b"><path d="M 333.59375 66.121094 L 410.84375 66.121094 L 410.84375 389 L 333.59375 389 Z M 333.59375 66.121094 " clip-rule="nonzero"/></clipPath><clipPath id="9feecd636b"><path d="M 4 167.070312 L 180 167.070312 L 180 435.570312 L 4 435.570312 Z M 4 167.070312 " clip-rule="nonzero"/></clipPath></defs><g clip-path="url(#8273f2dbb9)"><path fill="#ff3131" d="M 224.882812 596.511719 L 224.882812 3.492188 L 519.730469 3.492188 L 519.730469 596.511719 Z M 523.042969 0.179688 L 221.570312 0.179688 L 221.570312 599.820312 L 523.042969 599.820312 L 523.042969 0.179688 " fill-opacity="1" fill-rule="nonzero"/></g><g clip-path="url(#7b53dc391c)"><path fill="#ff3131" d="M 410.84375 453.394531 C 410.84375 454.660156 410.78125 455.925781 410.65625 457.1875 C 410.53125 458.453125 410.347656 459.703125 410.101562 460.949219 C 409.851562 462.191406 409.546875 463.421875 409.179688 464.636719 C 408.8125 465.847656 408.386719 467.042969 407.902344 468.214844 C 407.417969 469.386719 406.878906 470.53125 406.28125 471.648438 C 405.683594 472.765625 405.035156 473.855469 404.332031 474.910156 C 403.628906 475.964844 402.878906 476.980469 402.074219 477.960938 C 401.273438 478.941406 400.421875 479.878906 399.527344 480.777344 C 398.632812 481.675781 397.699219 482.523438 396.71875 483.328125 C 395.742188 484.132812 394.726562 484.886719 393.675781 485.59375 C 392.625 486.296875 391.539062 486.949219 390.425781 487.546875 C 389.308594 488.144531 388.167969 488.6875 387 489.171875 C 385.828125 489.65625 384.640625 490.085938 383.429688 490.453125 C 382.21875 490.820312 380.992188 491.128906 379.753906 491.375 C 378.511719 491.625 377.261719 491.808594 376.003906 491.933594 C 374.742188 492.058594 373.480469 492.121094 372.21875 492.121094 C 370.953125 492.121094 369.691406 492.058594 368.429688 491.933594 C 367.171875 491.808594 365.921875 491.625 364.679688 491.375 C 363.441406 491.128906 362.214844 490.820312 361.003906 490.453125 C 359.792969 490.085938 358.605469 489.65625 357.4375 489.171875 C 356.265625 488.6875 355.125 488.144531 354.007812 487.546875 C 352.894531 486.949219 351.808594 486.296875 350.757812 485.59375 C 349.707031 484.886719 348.691406 484.132812 347.714844 483.328125 C 346.734375 482.523438 345.800781 481.675781 344.90625 480.777344 C 344.011719 479.878906 343.160156 478.941406 342.359375 477.960938 C 341.558594 476.980469 340.804688 475.964844 340.101562 474.910156 C 339.398438 473.855469 338.75 472.765625 338.152344 471.648438 C 337.554688 470.53125 337.015625 469.386719 336.53125 468.214844 C 336.046875 467.042969 335.621094 465.847656 335.253906 464.636719 C 334.886719 463.421875 334.582031 462.191406 334.335938 460.949219 C 334.085938 459.703125 333.902344 458.453125 333.777344 457.1875 C 333.652344 455.925781 333.59375 454.660156 333.59375 453.394531 C 333.59375 452.125 333.652344 450.859375 333.777344 449.597656 C 333.902344 448.335938 334.085938 447.082031 334.335938 445.835938 C 334.582031 444.59375 334.886719 443.363281 335.253906 442.152344 C 335.621094 440.9375 336.046875 439.746094 336.53125 438.574219 C 337.015625 437.402344 337.554688 436.257812 338.152344 435.136719 C 338.75 434.019531 339.398438 432.933594 340.101562 431.878906 C 340.804688 430.824219 341.558594 429.804688 342.359375 428.824219 C 343.160156 427.84375 344.011719 426.90625 344.90625 426.007812 C 345.800781 425.113281 346.734375 424.261719 347.714844 423.457031 C 348.691406 422.652344 349.707031 421.898438 350.757812 421.191406 C 351.808594 420.488281 352.894531 419.835938 354.007812 419.238281 C 355.125 418.640625 356.265625 418.097656 357.4375 417.613281 C 358.605469 417.128906 359.792969 416.703125 361.003906 416.332031 C 362.214844 415.964844 363.441406 415.65625 364.679688 415.410156 C 365.921875 415.164062 367.171875 414.976562 368.429688 414.851562 C 369.691406 414.730469 370.953125 414.667969 372.21875 414.667969 C 373.480469 414.667969 374.742188 414.730469 376.003906 414.851562 C 377.261719 414.976562 378.511719 415.164062 379.753906 415.410156 C 380.992188 415.65625 382.21875 415.964844 383.429688 416.332031 C 384.640625 416.703125 385.828125 417.128906 387 417.613281 C 388.167969 418.097656 389.308594 418.640625 390.425781 419.238281 C 391.539062 419.835938 392.625 420.488281 393.675781 421.191406 C 394.726562 421.898438 395.742188 422.652344 396.71875 423.457031 C 397.699219 424.261719 398.632812 425.113281 399.527344 426.007812 C 400.421875 426.90625 401.273438 427.84375 402.074219 428.824219 C 402.878906 429.804688 403.628906 430.824219 404.332031 431.878906 C 405.035156 432.933594 405.683594 434.019531 406.28125 435.136719 C 406.878906 436.257812 407.417969 437.402344 407.902344 438.574219 C 408.386719 439.746094 408.8125 440.9375 409.179688 442.152344 C 409.546875 443.363281 409.851562 444.59375 410.101562 445.835938 C 410.347656 447.082031 410.53125 448.335938 410.65625 449.597656 C 410.78125 450.859375 410.84375 452.125 410.84375 453.394531 Z M 410.84375 453.394531 " fill-opacity="1" fill-rule="nonzero"/></g><g clip-path="url(#e9e1a6123b)"><path fill="#ff3131" d="M 410.84375 350.121094 C 410.84375 371.511719 393.539062 388.847656 372.21875 388.847656 C 350.882812 388.847656 333.59375 371.511719 333.59375 350.121094 L 333.59375 104.851562 C 333.59375 83.460938 350.882812 66.125 372.21875 66.125 C 393.539062 66.125 410.84375 83.460938 410.84375 104.851562 Z M 410.84375 350.121094 " fill-opacity="1" fill-rule="nonzero"/></g><g clip-path="url(#9feecd636b)"><path fill="#ff3131" d="M 92.175781 167.570312 C 88.800781 193.457031 79.21875 218.519531 64.453125 240.070312 C 55.273438 253.460938 44.199219 265.429688 33.988281 278.058594 C 23.78125 290.683594 14.300781 304.226562 9.007812 319.566406 C -0.0390625 345.78125 4.488281 376.25 20.707031 398.769531 C 36.921875 421.285156 64.378906 435.28125 92.171875 435.28125 C 119.96875 435.28125 147.425781 421.285156 163.640625 398.769531 C 179.859375 376.25 184.386719 345.78125 175.339844 319.566406 C 170.046875 304.226562 160.566406 290.683594 150.359375 278.058594 C 140.148438 265.429688 129.074219 253.460938 119.894531 240.070312 C 105.128906 218.519531 95.546875 193.457031 92.171875 167.570312 Z M 92.175781 167.570312 " fill-opacity="1" fill-rule="nonzero"/></g><path fill="#ffffff" d="M 63.808594 266.261719 C 61.527344 267.984375 59.347656 269.835938 57.269531 271.796875 C 59.386719 269.878906 61.566406 268.035156 63.808594 266.261719 Z M 57.269531 271.796875 C 45.570312 282.394531 35.84375 295.15625 28.765625 309.25 C 21.117188 324.476562 16.53125 341.652344 18.488281 358.566406 C 20.292969 374.203125 27.804688 389.121094 39.300781 399.902344 L 53.191406 381.546875 C 46.46875 374.210938 41.167969 365.582031 37.660156 356.277344 C 31.757812 340.601562 31.078125 323.019531 35.746094 306.9375 C 39.625 293.59375 47.167969 281.347656 57.269531 271.796875 Z M 56.75 384.722656 L 42.925781 403.171875 C 45.96875 406.828125 49.375 410.183594 53.070312 413.183594 C 55.851562 415.441406 58.804688 417.496094 61.890625 419.328125 L 77.59375 399.644531 C 71.082031 396.027344 64.929688 391.761719 59.261719 386.929688 C 58.414062 386.207031 57.574219 385.472656 56.75 384.722656 Z M 56.75 384.722656 " fill-opacity="1" fill-rule="nonzero"/></svg>