<svg xmlns="http://www.w3.org/2000/svg" xmlns:xlink="http://www.w3.org/1999/xlink" width="800" zoomAndPan="magnify" viewBox="0 0 600 599.999999" height="800" preserveAspectRatio="xMidYMid meet" version="1.0"><defs><clipPath id="6beb2e51ed"><path d="M 298.5 0 L 600 0 L 600 600 L 298.5 600 Z M 298.5 0 " clip-rule="nonzero"/></clipPath><clipPath id="4b1f904b8d"><path d="M 81 167.070312 L 257 167.070312 L 257 435.570312 L 81 435.570312 Z M 81 167.070312 " clip-rule="nonzero"/></clipPath><clipPath id="8badf1c1ef"><path d="M 316.144531 205 L 582.394531 205 L 582.394531 436 L 316.144531 436 Z M 316.144531 205 " clip-rule="nonzero"/></clipPath></defs><g clip-path="url(#6beb2e51ed)"><path fill="#ff3131" d="M 301.824219 596.511719 L 301.824219 3.492188 L 596.675781 3.492188 L 596.675781 596.511719 Z M 599.988281 0.179688 L 298.511719 0.179688 L 298.511719 599.820312 L 599.988281 599.820312 L 599.988281 0.179688 " fill-opacity="1" fill-rule="nonzero"/></g><g clip-path="url(#4b1f904b8d)"><path fill="#ff3131" d="M 169.117188 167.570312 C 165.746094 193.457031 156.164062 218.519531 141.394531 240.070312 C 132.21875 253.460938 121.140625 265.429688 110.933594 278.058594 C 100.722656 290.683594 91.242188 304.226562 85.949219 319.566406 C 76.902344 345.78125 81.433594 376.25 97.648438 398.769531 C 113.867188 421.285156 141.324219 435.28125 169.117188 435.28125 C 196.910156 435.28125 224.367188 421.285156 240.585938 398.769531 C 256.804688 376.25 261.332031 345.78125 252.285156 319.566406 C 246.992188 304.226562 237.511719 290.683594 227.300781 278.058594 C 217.09375 265.429688 206.015625 253.460938 196.839844 240.070312 C 182.070312 218.519531 172.488281 193.457031 169.117188 167.570312 Z M 169.117188 167.570312 " fill-opacity="1" fill-rule="nonzero"/></g><path fill="#ffffff" d="M 140.75 266.261719 C 138.46875 267.984375 136.289062 269.835938 134.214844 271.796875 C 136.332031 269.878906 138.511719 268.035156 140.75 266.261719 Z M 134.214844 271.796875 C 122.515625 282.394531 112.785156 295.15625 105.707031 309.25 C 98.0625 324.476562 93.476562 341.652344 95.429688 358.566406 C 97.238281 374.203125 104.75 389.121094 116.246094 399.902344 L 130.132812 381.546875 C 123.414062 374.210938 118.109375 365.582031 114.605469 356.277344 C 108.703125 340.601562 108.019531 323.019531 112.691406 306.9375 C 116.566406 293.59375 124.113281 281.347656 134.214844 271.796875 Z M 133.691406 384.722656 L 119.867188 403.171875 C 122.914062 406.828125 126.316406 410.183594 130.011719 413.183594 C 132.796875 415.441406 135.746094 417.496094 138.832031 419.328125 L 154.539062 399.644531 C 148.023438 396.027344 141.875 391.761719 136.207031 386.929688 C 135.359375 386.207031 134.519531 385.472656 133.691406 384.722656 Z M 133.691406 384.722656 " fill-opacity="1" fill-rule="nonzero"/><g clip-path="url(#8badf1c1ef)"><path fill="#ff3131" d="M 582.394531 363.019531 C 582.394531 361.902344 582.335938 360.785156 582.226562 359.675781 C 582.117188 358.5625 581.953125 357.457031 581.734375 356.359375 C 581.515625 355.261719 581.242188 354.179688 580.917969 353.109375 C 580.59375 352.039062 580.21875 350.988281 579.789062 349.953125 C 579.363281 348.921875 578.882812 347.914062 578.359375 346.925781 C 577.832031 345.941406 577.257812 344.980469 576.636719 344.050781 C 576.015625 343.121094 575.351562 342.226562 574.640625 341.359375 C 573.933594 340.496094 573.183594 339.667969 572.394531 338.878906 C 571.605469 338.085938 570.777344 337.335938 569.914062 336.628906 C 569.050781 335.917969 568.15625 335.253906 567.226562 334.632812 C 566.296875 334.011719 565.339844 333.433594 564.355469 332.90625 C 563.371094 332.378906 562.363281 331.902344 561.332031 331.472656 C 560.300781 331.046875 559.25 330.667969 558.179688 330.34375 C 557.109375 330.019531 556.027344 329.746094 554.933594 329.527344 C 553.839844 329.308594 552.734375 329.144531 551.625 329.035156 C 550.511719 328.921875 549.398438 328.867188 548.28125 328.867188 L 528.421875 328.867188 L 528.421875 281.191406 C 528.429688 276.671875 527.914062 272.214844 526.875 267.820312 C 525.835938 263.421875 524.296875 259.207031 522.265625 255.171875 C 519.121094 248.929688 515.304688 243.132812 510.8125 237.78125 C 506.320312 232.425781 501.269531 227.664062 495.667969 223.492188 C 489.03125 218.6875 481.894531 214.8125 474.25 211.871094 C 466.605469 208.929688 458.714844 207.019531 450.574219 206.136719 C 427.636719 203.664062 407.085938 208.386719 389.558594 220.242188 C 385.273438 223.191406 381.269531 226.484375 377.550781 230.121094 C 373.832031 233.761719 370.453125 237.691406 367.40625 241.910156 C 364.363281 246.132812 361.703125 250.582031 359.425781 255.261719 C 357.144531 259.9375 355.28125 264.777344 353.835938 269.777344 L 348.289062 269.777344 C 347.234375 269.78125 346.179688 269.835938 345.128906 269.9375 C 344.082031 270.042969 343.039062 270.203125 342.003906 270.410156 C 340.96875 270.617188 339.949219 270.875 338.9375 271.183594 C 337.929688 271.492188 336.9375 271.851562 335.964844 272.257812 C 334.988281 272.664062 334.039062 273.117188 333.109375 273.617188 C 332.179688 274.113281 331.277344 274.660156 330.398438 275.25 C 329.523438 275.835938 328.679688 276.46875 327.863281 277.140625 C 327.050781 277.8125 326.269531 278.519531 325.527344 279.269531 C 324.78125 280.019531 324.074219 280.800781 323.40625 281.621094 C 322.738281 282.4375 322.113281 283.285156 321.53125 284.167969 C 320.945312 285.046875 320.40625 285.953125 319.910156 286.886719 C 319.414062 287.816406 318.96875 288.773438 318.566406 289.75 C 318.164062 290.726562 317.8125 291.722656 317.507812 292.734375 C 317.203125 293.746094 316.949219 294.769531 316.746094 295.804688 C 316.542969 296.84375 316.390625 297.886719 316.289062 298.9375 C 316.191406 299.988281 316.140625 301.042969 316.144531 302.097656 L 316.144531 323.589844 C 316.144531 323.957031 316.179688 324.316406 316.25 324.675781 C 316.320312 325.03125 316.425781 325.378906 316.566406 325.714844 C 316.707031 326.054688 316.875 326.375 317.078125 326.675781 C 317.28125 326.980469 317.511719 327.261719 317.769531 327.519531 C 318.027344 327.777344 318.304688 328.007812 318.609375 328.207031 C 318.910156 328.410156 319.230469 328.582031 319.566406 328.722656 C 319.90625 328.863281 320.25 328.96875 320.609375 329.039062 C 320.964844 329.109375 321.328125 329.144531 321.691406 329.144531 L 330.980469 329.144531 L 330.980469 406.894531 C 330.984375 407.828125 331.03125 408.765625 331.121094 409.695312 C 331.214844 410.628906 331.351562 411.554688 331.535156 412.472656 C 331.71875 413.390625 331.945312 414.296875 332.21875 415.195312 C 332.488281 416.089844 332.804688 416.972656 333.164062 417.835938 C 333.519531 418.703125 333.921875 419.546875 334.363281 420.375 C 334.804688 421.199219 335.285156 422.003906 335.804688 422.78125 C 336.324219 423.5625 336.878906 424.3125 337.472656 425.039062 C 338.066406 425.761719 338.695312 426.457031 339.355469 427.117188 C 340.015625 427.78125 340.707031 428.410156 341.429688 429.003906 C 342.152344 429.597656 342.90625 430.15625 343.683594 430.679688 C 344.460938 431.199219 345.261719 431.679688 346.085938 432.125 C 346.910156 432.566406 347.753906 432.964844 348.617188 433.328125 C 349.484375 433.6875 350.363281 434.003906 351.257812 434.273438 C 352.152344 434.546875 353.058594 434.777344 353.976562 434.960938 C 354.894531 435.144531 355.816406 435.285156 356.75 435.378906 C 357.679688 435.472656 358.613281 435.519531 359.546875 435.519531 L 361.324219 435.519531 C 362.261719 435.519531 363.203125 435.472656 364.136719 435.378906 C 365.074219 435.285156 366.003906 435.148438 366.925781 434.964844 C 367.847656 434.78125 368.757812 434.550781 369.660156 434.277344 C 370.558594 434.003906 371.441406 433.6875 372.3125 433.328125 C 373.179688 432.964844 374.03125 432.5625 374.859375 432.121094 C 375.691406 431.675781 376.496094 431.195312 377.277344 430.671875 C 378.058594 430.148438 378.816406 429.589844 379.542969 428.992188 C 380.269531 428.394531 380.964844 427.765625 381.632812 427.097656 C 382.296875 426.433594 382.929688 425.738281 383.527344 425.011719 C 384.125 424.28125 384.683594 423.527344 385.207031 422.746094 C 385.734375 421.964844 386.21875 421.15625 386.660156 420.328125 C 387.105469 419.5 387.507812 418.648438 387.871094 417.78125 C 388.234375 416.910156 388.550781 416.023438 388.824219 415.125 C 389.101562 414.222656 389.332031 413.3125 389.515625 412.390625 C 389.703125 411.464844 389.84375 410.535156 389.9375 409.597656 C 390.03125 408.664062 390.082031 407.722656 390.082031 406.78125 L 390.082031 329.035156 L 399.347656 329.035156 C 399.710938 329.035156 400.070312 329 400.429688 328.925781 C 400.785156 328.855469 401.132812 328.75 401.46875 328.609375 C 401.804688 328.472656 402.125 328.300781 402.429688 328.097656 C 402.730469 327.894531 403.011719 327.664062 403.269531 327.40625 C 403.527344 327.148438 403.757812 326.867188 403.960938 326.566406 C 404.160156 326.261719 404.332031 325.941406 404.472656 325.605469 C 404.609375 325.269531 404.714844 324.921875 404.789062 324.5625 C 404.859375 324.207031 404.894531 323.84375 404.894531 323.480469 L 404.894531 303.210938 C 404.894531 302.117188 404.839844 301.027344 404.730469 299.941406 C 404.625 298.855469 404.464844 297.773438 404.25 296.703125 C 404.039062 295.632812 403.773438 294.574219 403.457031 293.527344 C 403.140625 292.484375 402.773438 291.457031 402.355469 290.445312 C 401.9375 289.4375 401.472656 288.449219 400.960938 287.488281 C 400.445312 286.523438 399.886719 285.585938 399.28125 284.675781 C 398.675781 283.769531 398.027344 282.890625 397.335938 282.046875 C 396.644531 281.199219 395.914062 280.390625 395.144531 279.617188 C 394.375 278.84375 393.566406 278.109375 392.726562 277.414062 C 391.882812 276.71875 391.011719 276.070312 390.105469 275.460938 C 389.199219 274.851562 388.265625 274.289062 387.304688 273.769531 C 386.34375 273.253906 385.359375 272.785156 384.351562 272.363281 C 383.347656 271.941406 382.320312 271.570312 381.277344 271.25 C 380.234375 270.929688 379.179688 270.660156 378.109375 270.445312 C 377.039062 270.226562 375.960938 270.0625 374.878906 269.953125 C 373.792969 269.839844 372.703125 269.78125 371.613281 269.777344 L 365.429688 269.777344 C 366.777344 265.710938 368.445312 261.777344 370.429688 257.980469 C 372.417969 254.183594 374.695312 250.570312 377.265625 247.144531 C 379.839844 243.71875 382.667969 240.519531 385.757812 237.554688 C 388.851562 234.585938 392.160156 231.890625 395.6875 229.460938 C 399.601562 226.871094 403.714844 224.648438 408.03125 222.800781 C 412.34375 220.949219 416.789062 219.503906 421.363281 218.453125 C 425.941406 217.40625 430.570312 216.777344 435.257812 216.5625 C 439.949219 216.351562 444.617188 216.558594 449.269531 217.1875 C 456.433594 217.957031 463.382812 219.632812 470.113281 222.210938 C 476.84375 224.792969 483.136719 228.1875 488.984375 232.402344 C 493.890625 236.066406 498.316406 240.242188 502.253906 244.933594 C 506.195312 249.625 509.546875 254.703125 512.308594 260.171875 C 513.945312 263.421875 515.183594 266.816406 516.015625 270.359375 C 516.851562 273.902344 517.261719 277.496094 517.246094 281.136719 L 517.246094 328.867188 L 482.550781 328.867188 C 481.433594 328.867188 480.320312 328.921875 479.207031 329.035156 C 478.097656 329.144531 476.992188 329.308594 475.898438 329.527344 C 474.800781 329.746094 473.71875 330.019531 472.652344 330.34375 C 471.582031 330.667969 470.53125 331.046875 469.5 331.472656 C 468.46875 331.902344 467.460938 332.378906 466.476562 332.90625 C 465.488281 333.433594 464.53125 334.011719 463.605469 334.632812 C 462.675781 335.253906 461.78125 335.917969 460.917969 336.628906 C 460.054688 337.335938 459.226562 338.085938 458.4375 338.878906 C 457.648438 339.667969 456.898438 340.496094 456.1875 341.359375 C 455.480469 342.226562 454.816406 343.121094 454.195312 344.050781 C 453.574219 344.980469 453 345.941406 452.472656 346.925781 C 451.945312 347.914062 451.46875 348.921875 451.039062 349.953125 C 450.613281 350.988281 450.238281 352.039062 449.910156 353.109375 C 449.585938 354.179688 449.316406 355.261719 449.097656 356.359375 C 448.878906 357.457031 448.714844 358.5625 448.605469 359.675781 C 448.492188 360.785156 448.4375 361.902344 448.4375 363.019531 L 448.4375 399.949219 C 448.4375 401.070312 448.492188 402.1875 448.605469 403.296875 C 448.714844 404.410156 448.878906 405.515625 449.097656 406.613281 C 449.316406 407.710938 449.585938 408.792969 449.910156 409.863281 C 450.234375 410.9375 450.613281 411.988281 451.039062 413.019531 C 451.46875 414.054688 451.945312 415.0625 452.472656 416.050781 C 453 417.039062 453.574219 417.996094 454.191406 418.925781 C 454.8125 419.855469 455.480469 420.753906 456.1875 421.617188 C 456.894531 422.484375 457.644531 423.3125 458.433594 424.101562 C 459.222656 424.894531 460.050781 425.644531 460.914062 426.355469 C 461.777344 427.066406 462.671875 427.730469 463.601562 428.355469 C 464.53125 428.976562 465.488281 429.550781 466.472656 430.078125 C 467.457031 430.605469 468.464844 431.085938 469.496094 431.515625 C 470.53125 431.945312 471.578125 432.320312 472.648438 432.648438 C 473.71875 432.972656 474.800781 433.246094 475.894531 433.464844 C 476.992188 433.6875 478.09375 433.851562 479.207031 433.960938 C 480.316406 434.074219 481.433594 434.128906 482.550781 434.132812 L 548.226562 434.132812 C 549.34375 434.132812 550.460938 434.078125 551.574219 433.96875 C 552.6875 433.859375 553.789062 433.695312 554.886719 433.476562 C 555.984375 433.257812 557.070312 432.984375 558.140625 432.660156 C 559.210938 432.335938 560.261719 431.960938 561.292969 431.53125 C 562.328125 431.101562 563.339844 430.625 564.324219 430.097656 C 565.3125 429.570312 566.269531 428.996094 567.199219 428.371094 C 568.128906 427.75 569.027344 427.085938 569.890625 426.375 C 570.757812 425.664062 571.585938 424.914062 572.375 424.121094 C 573.167969 423.332031 573.917969 422.503906 574.628906 421.636719 C 575.339844 420.773438 576.003906 419.875 576.625 418.941406 C 577.246094 418.011719 577.824219 417.054688 578.351562 416.066406 C 578.878906 415.078125 579.355469 414.066406 579.785156 413.035156 C 580.214844 412 580.589844 410.945312 580.914062 409.875 C 581.242188 408.804688 581.511719 407.71875 581.734375 406.621094 C 581.953125 405.523438 582.117188 404.417969 582.226562 403.300781 C 582.335938 402.1875 582.394531 401.070312 582.394531 399.949219 Z M 359.1875 318.039062 L 375.550781 282.300781 C 375.675781 282.023438 375.777344 281.738281 375.855469 281.441406 C 378.085938 281.875 380.191406 282.644531 382.179688 283.746094 L 365.121094 318.039062 Z M 346.984375 318.039062 L 338.664062 318.039062 L 355.027344 282.300781 C 355.210938 281.882812 355.339844 281.449219 355.414062 280.996094 L 363.734375 280.996094 Z M 343.210938 281.664062 L 327.238281 316.398438 L 327.238281 302.097656 C 327.238281 300.933594 327.335938 299.773438 327.527344 298.621094 C 327.722656 297.46875 328.007812 296.34375 328.390625 295.238281 C 328.769531 294.136719 329.238281 293.070312 329.796875 292.046875 C 330.355469 291.019531 330.992188 290.046875 331.710938 289.128906 C 332.429688 288.207031 333.21875 287.355469 334.078125 286.566406 C 334.941406 285.777344 335.859375 285.066406 336.835938 284.433594 C 337.816406 283.796875 338.839844 283.246094 339.910156 282.78125 C 340.980469 282.316406 342.082031 281.945312 343.210938 281.664062 Z M 378.988281 406.78125 C 378.988281 407.359375 378.960938 407.9375 378.902344 408.515625 C 378.84375 409.089844 378.757812 409.664062 378.644531 410.230469 C 378.53125 410.796875 378.390625 411.359375 378.222656 411.914062 C 378.054688 412.46875 377.859375 413.011719 377.636719 413.546875 C 377.414062 414.082031 377.167969 414.605469 376.894531 415.113281 C 376.621094 415.625 376.324219 416.121094 376.003906 416.601562 C 375.683594 417.082031 375.339844 417.546875 374.972656 417.996094 C 374.605469 418.441406 374.214844 418.871094 373.808594 419.28125 C 373.398438 419.691406 372.96875 420.078125 372.523438 420.445312 C 372.078125 420.8125 371.613281 421.15625 371.132812 421.480469 C 370.652344 421.800781 370.15625 422.097656 369.644531 422.371094 C 369.136719 422.644531 368.613281 422.894531 368.078125 423.117188 C 367.546875 423.335938 367 423.53125 366.449219 423.703125 C 365.894531 423.871094 365.335938 424.011719 364.769531 424.125 C 364.199219 424.238281 363.628906 424.324219 363.054688 424.382812 C 362.476562 424.4375 361.902344 424.46875 361.324219 424.46875 L 359.546875 424.46875 C 358.976562 424.46875 358.40625 424.441406 357.835938 424.382812 C 357.265625 424.324219 356.699219 424.242188 356.136719 424.128906 C 355.578125 424.015625 355.023438 423.875 354.472656 423.707031 C 353.925781 423.542969 353.386719 423.347656 352.859375 423.128906 C 352.332031 422.90625 351.8125 422.664062 351.308594 422.390625 C 350.804688 422.121094 350.316406 421.824219 349.839844 421.507812 C 349.363281 421.1875 348.902344 420.847656 348.460938 420.480469 C 348.019531 420.117188 347.597656 419.734375 347.191406 419.328125 C 346.785156 418.921875 346.402344 418.496094 346.039062 418.054688 C 345.675781 417.609375 345.335938 417.152344 345.019531 416.675781 C 344.703125 416.195312 344.40625 415.707031 344.136719 415.199219 C 343.867188 414.695312 343.625 414.175781 343.40625 413.648438 C 343.1875 413.117188 342.992188 412.578125 342.828125 412.03125 C 342.660156 411.480469 342.523438 410.925781 342.410156 410.363281 C 342.300781 409.800781 342.214844 409.234375 342.160156 408.664062 C 342.101562 408.09375 342.074219 407.523438 342.074219 406.949219 L 342.074219 329.199219 L 378.988281 329.199219 Z M 393.773438 317.925781 L 377.519531 317.925781 L 390.554688 291.992188 C 391.597656 293.699219 392.398438 295.511719 392.949219 297.4375 C 393.5 299.359375 393.78125 301.320312 393.800781 303.320312 Z M 482.523438 339.863281 L 548.226562 339.863281 C 548.980469 339.863281 549.730469 339.902344 550.480469 339.976562 C 551.230469 340.050781 551.976562 340.164062 552.714844 340.308594 C 553.453125 340.457031 554.183594 340.640625 554.902344 340.863281 C 555.625 341.082031 556.332031 341.335938 557.03125 341.625 C 557.726562 341.914062 558.40625 342.238281 559.070312 342.59375 C 559.734375 342.949219 560.382812 343.335938 561.007812 343.753906 C 561.632812 344.175781 562.238281 344.625 562.820312 345.101562 C 563.402344 345.582031 563.960938 346.085938 564.496094 346.621094 C 565.027344 347.15625 565.53125 347.714844 566.011719 348.296875 C 566.488281 348.878906 566.9375 349.484375 567.355469 350.113281 C 567.777344 350.738281 568.164062 351.386719 568.519531 352.050781 C 568.875 352.714844 569.195312 353.398438 569.484375 354.09375 C 569.773438 354.792969 570.027344 355.5 570.246094 356.222656 C 570.464844 356.945312 570.648438 357.675781 570.796875 358.414062 C 570.945312 359.15625 571.054688 359.902344 571.132812 360.652344 C 571.207031 361.402344 571.242188 362.15625 571.246094 362.910156 L 571.246094 374.820312 L 546.867188 374.820312 C 545.882812 374.828125 544.964844 375.078125 544.113281 375.574219 C 543.261719 376.070312 542.589844 376.746094 542.097656 377.597656 L 530.558594 397.035156 L 507.898438 349.941406 C 507.792969 349.722656 507.675781 349.515625 507.542969 349.3125 C 507.410156 349.109375 507.265625 348.917969 507.105469 348.734375 C 506.949219 348.550781 506.777344 348.378906 506.597656 348.214844 C 506.417969 348.054688 506.226562 347.90625 506.027344 347.769531 C 505.828125 347.632812 505.621094 347.511719 505.402344 347.402344 C 505.1875 347.292969 504.964844 347.199219 504.738281 347.117188 C 504.507812 347.039062 504.277344 346.972656 504.039062 346.925781 C 503.804688 346.875 503.5625 346.839844 503.324219 346.824219 C 503.082031 346.804688 502.839844 346.800781 502.597656 346.816406 C 502.355469 346.828125 502.117188 346.859375 501.878906 346.902344 C 501.640625 346.949219 501.410156 347.007812 501.179688 347.082031 C 500.949219 347.160156 500.726562 347.25 500.507812 347.351562 C 500.289062 347.457031 500.078125 347.578125 499.875 347.710938 C 499.671875 347.839844 499.480469 347.984375 499.296875 348.144531 C 499.113281 348.300781 498.941406 348.46875 498.777344 348.652344 C 498.617188 348.832031 498.46875 349.019531 498.332031 349.21875 L 478.5 378.070312 L 459.503906 378.070312 L 459.503906 363.019531 C 459.503906 362.265625 459.542969 361.511719 459.617188 360.761719 C 459.691406 360.007812 459.800781 359.261719 459.949219 358.523438 C 460.097656 357.78125 460.28125 357.050781 460.5 356.328125 C 460.722656 355.605469 460.976562 354.894531 461.265625 354.199219 C 461.554688 353.5 461.878906 352.820312 462.234375 352.15625 C 462.589844 351.488281 462.976562 350.84375 463.398438 350.214844 C 463.816406 349.585938 464.265625 348.980469 464.746094 348.398438 C 465.222656 347.816406 465.730469 347.257812 466.261719 346.722656 C 466.796875 346.1875 467.355469 345.683594 467.9375 345.203125 C 468.523438 344.726562 469.128906 344.277344 469.753906 343.855469 C 470.382812 343.4375 471.027344 343.050781 471.691406 342.695312 C 472.359375 342.339844 473.039062 342.015625 473.738281 341.726562 C 474.433594 341.4375 475.144531 341.183594 475.863281 340.964844 C 476.585938 340.746094 477.316406 340.5625 478.058594 340.417969 C 478.796875 340.269531 479.542969 340.160156 480.292969 340.085938 C 481.042969 340.011719 481.796875 339.972656 482.550781 339.972656 Z M 548.226562 423.027344 L 482.550781 423.027344 C 481.796875 423.023438 481.042969 422.984375 480.292969 422.910156 C 479.542969 422.832031 478.800781 422.722656 478.058594 422.574219 C 477.320312 422.425781 476.589844 422.238281 475.867188 422.019531 C 475.148438 421.796875 474.4375 421.542969 473.742188 421.253906 C 473.046875 420.964844 472.367188 420.640625 471.703125 420.285156 C 471.039062 419.925781 470.390625 419.539062 469.765625 419.117188 C 469.140625 418.699219 468.535156 418.25 467.953125 417.769531 C 467.371094 417.289062 466.8125 416.785156 466.277344 416.25 C 465.746094 415.714844 465.242188 415.15625 464.761719 414.574219 C 464.285156 413.988281 463.835938 413.382812 463.417969 412.753906 C 463 412.128906 462.613281 411.480469 462.257812 410.816406 C 461.902344 410.148438 461.578125 409.46875 461.289062 408.769531 C 461 408.074219 460.746094 407.363281 460.527344 406.640625 C 460.308594 405.917969 460.125 405.1875 459.976562 404.449219 C 459.828125 403.707031 459.71875 402.960938 459.644531 402.210938 C 459.570312 401.457031 459.53125 400.707031 459.53125 399.949219 L 459.53125 389.175781 L 481.441406 389.175781 C 482.355469 389.175781 483.21875 388.964844 484.027344 388.535156 C 484.835938 388.109375 485.5 387.515625 486.015625 386.761719 L 501.964844 363.382812 L 524.929688 411.03125 C 525.144531 411.484375 525.421875 411.898438 525.753906 412.277344 C 526.082031 412.65625 526.460938 412.984375 526.878906 413.261719 C 527.300781 413.535156 527.75 413.75 528.226562 413.90625 C 528.707031 414.058594 529.195312 414.148438 529.699219 414.167969 L 529.921875 414.167969 C 530.90625 414.160156 531.824219 413.910156 532.675781 413.414062 C 533.527344 412.917969 534.199219 412.246094 534.691406 411.390625 L 549.890625 385.957031 L 571.300781 385.957031 L 571.300781 399.839844 C 571.304688 400.597656 571.269531 401.355469 571.199219 402.109375 C 571.128906 402.867188 571.019531 403.617188 570.875 404.359375 C 570.730469 405.105469 570.550781 405.839844 570.332031 406.566406 C 570.113281 407.292969 569.863281 408.007812 569.574219 408.710938 C 569.289062 409.414062 568.964844 410.097656 568.609375 410.769531 C 568.253906 411.4375 567.867188 412.089844 567.449219 412.722656 C 567.03125 413.351562 566.578125 413.964844 566.101562 414.550781 C 565.621094 415.136719 565.113281 415.699219 564.578125 416.238281 C 564.042969 416.773438 563.484375 417.285156 562.898438 417.765625 C 562.3125 418.25 561.707031 418.703125 561.078125 419.125 C 560.449219 419.546875 559.800781 419.933594 559.132812 420.292969 C 558.464844 420.652344 557.777344 420.976562 557.078125 421.265625 C 556.378906 421.558594 555.667969 421.8125 554.941406 422.03125 C 554.214844 422.253906 553.480469 422.4375 552.738281 422.585938 C 551.996094 422.730469 551.246094 422.84375 550.492188 422.917969 C 549.738281 422.988281 548.984375 423.027344 548.226562 423.027344 Z M 548.226562 423.027344 " fill-opacity="1" fill-rule="nonzero"/></g></svg>