<svg xmlns="http://www.w3.org/2000/svg" xmlns:xlink="http://www.w3.org/1999/xlink" width="800" zoomAndPan="magnify" viewBox="0 0 600 599.999999" height="800" preserveAspectRatio="xMidYMid meet" version="1.0"><defs><clipPath id="fd441ee19d"><path d="M 221.554688 0 L 523.054688 0 L 523.054688 600 L 221.554688 600 Z M 221.554688 0 " clip-rule="nonzero"/></clipPath><clipPath id="63f669ef30"><path d="M 4 167.070312 L 180 167.070312 L 180 435.570312 L 4 435.570312 Z M 4 167.070312 " clip-rule="nonzero"/></clipPath><clipPath id="b18e358c97"><path d="M 239.199219 205 L 505.449219 205 L 505.449219 436 L 239.199219 436 Z M 239.199219 205 " clip-rule="nonzero"/></clipPath></defs><g clip-path="url(#fd441ee19d)"><path fill="#ff3131" d="M 224.882812 596.511719 L 224.882812 3.492188 L 519.730469 3.492188 L 519.730469 596.511719 Z M 523.042969 0.179688 L 221.570312 0.179688 L 221.570312 599.820312 L 523.042969 599.820312 L 523.042969 0.179688 " fill-opacity="1" fill-rule="nonzero"/></g><g clip-path="url(#63f669ef30)"><path fill="#ff3131" d="M 92.175781 167.570312 C 88.800781 193.457031 79.21875 218.519531 64.453125 240.070312 C 55.273438 253.460938 44.199219 265.429688 33.988281 278.058594 C 23.78125 290.683594 14.300781 304.226562 9.007812 319.566406 C -0.0390625 345.78125 4.488281 376.25 20.707031 398.769531 C 36.921875 421.285156 64.378906 435.28125 92.171875 435.28125 C 119.96875 435.28125 147.425781 421.285156 163.640625 398.769531 C 179.859375 376.25 184.386719 345.78125 175.339844 319.566406 C 170.046875 304.226562 160.566406 290.683594 150.359375 278.058594 C 140.148438 265.429688 129.074219 253.460938 119.894531 240.070312 C 105.128906 218.519531 95.546875 193.457031 92.171875 167.570312 Z M 92.175781 167.570312 " fill-opacity="1" fill-rule="nonzero"/></g><path fill="#ffffff" d="M 63.808594 266.261719 C 61.527344 267.984375 59.347656 269.835938 57.269531 271.796875 C 59.386719 269.878906 61.566406 268.035156 63.808594 266.261719 Z M 57.269531 271.796875 C 45.570312 282.394531 35.84375 295.15625 28.765625 309.25 C 21.117188 324.476562 16.53125 341.652344 18.488281 358.566406 C 20.292969 374.203125 27.804688 389.121094 39.300781 399.902344 L 53.191406 381.546875 C 46.46875 374.210938 41.167969 365.582031 37.660156 356.277344 C 31.757812 340.601562 31.078125 323.019531 35.746094 306.9375 C 39.625 293.59375 47.167969 281.347656 57.269531 271.796875 Z M 56.75 384.722656 L 42.925781 403.171875 C 45.96875 406.828125 49.375 410.183594 53.070312 413.183594 C 55.851562 415.441406 58.804688 417.496094 61.890625 419.328125 L 77.59375 399.644531 C 71.082031 396.027344 64.929688 391.761719 59.261719 386.929688 C 58.414062 386.207031 57.574219 385.472656 56.75 384.722656 Z M 56.75 384.722656 " fill-opacity="1" fill-rule="nonzero"/><g clip-path="url(#b18e358c97)"><path fill="#ff3131" d="M 505.449219 363.019531 C 505.449219 361.902344 505.394531 360.785156 505.285156 359.675781 C 505.171875 358.5625 505.007812 357.457031 504.789062 356.359375 C 504.570312 355.261719 504.300781 354.179688 503.976562 353.109375 C 503.648438 352.039062 503.273438 350.988281 502.847656 349.953125 C 502.417969 348.921875 501.941406 347.914062 501.414062 346.925781 C 500.886719 345.941406 500.3125 344.980469 499.691406 344.050781 C 499.070312 343.121094 498.40625 342.226562 497.699219 341.359375 C 496.988281 340.496094 496.242188 339.667969 495.449219 338.878906 C 494.660156 338.085938 493.835938 337.335938 492.972656 336.628906 C 492.105469 335.917969 491.210938 335.253906 490.28125 334.632812 C 489.355469 334.011719 488.398438 333.433594 487.414062 332.90625 C 486.425781 332.378906 485.417969 331.902344 484.386719 331.472656 C 483.355469 331.046875 482.304688 330.667969 481.238281 330.34375 C 480.167969 330.019531 479.085938 329.746094 477.988281 329.527344 C 476.894531 329.308594 475.792969 329.144531 474.679688 329.035156 C 473.566406 328.921875 472.453125 328.867188 471.335938 328.867188 L 451.480469 328.867188 L 451.480469 281.191406 C 451.488281 276.671875 450.972656 272.214844 449.929688 267.820312 C 448.890625 263.421875 447.355469 259.207031 445.320312 255.171875 C 442.179688 248.929688 438.359375 243.132812 433.867188 237.78125 C 429.375 232.425781 424.328125 227.664062 418.726562 223.492188 C 412.089844 218.6875 404.949219 214.8125 397.304688 211.871094 C 389.664062 208.929688 381.769531 207.019531 373.628906 206.136719 C 350.691406 203.664062 330.140625 208.386719 312.613281 220.242188 C 308.328125 223.191406 304.328125 226.484375 300.609375 230.121094 C 296.890625 233.761719 293.507812 237.691406 290.464844 241.910156 C 287.421875 246.132812 284.757812 250.582031 282.480469 255.261719 C 280.203125 259.9375 278.339844 264.777344 276.890625 269.777344 L 271.34375 269.777344 C 270.289062 269.78125 269.238281 269.832031 268.1875 269.9375 C 267.136719 270.042969 266.09375 270.203125 265.058594 270.410156 C 264.027344 270.617188 263.003906 270.875 261.996094 271.183594 C 260.984375 271.492188 259.992188 271.851562 259.019531 272.257812 C 258.046875 272.664062 257.09375 273.117188 256.164062 273.617188 C 255.234375 274.113281 254.332031 274.660156 253.457031 275.25 C 252.578125 275.835938 251.734375 276.46875 250.921875 277.140625 C 250.105469 277.8125 249.328125 278.519531 248.582031 279.269531 C 247.835938 280.019531 247.132812 280.800781 246.464844 281.621094 C 245.796875 282.4375 245.171875 283.285156 244.585938 284.167969 C 244.003906 285.046875 243.460938 285.953125 242.96875 286.886719 C 242.472656 287.816406 242.023438 288.773438 241.621094 289.75 C 241.21875 290.726562 240.867188 291.722656 240.5625 292.734375 C 240.261719 293.746094 240.007812 294.769531 239.804688 295.804688 C 239.601562 296.84375 239.449219 297.886719 239.347656 298.9375 C 239.246094 299.988281 239.199219 301.042969 239.199219 302.097656 L 239.199219 323.589844 C 239.199219 323.957031 239.234375 324.316406 239.308594 324.675781 C 239.378906 325.03125 239.484375 325.378906 239.621094 325.714844 C 239.761719 326.054688 239.933594 326.375 240.136719 326.675781 C 240.335938 326.980469 240.566406 327.261719 240.824219 327.519531 C 241.082031 327.777344 241.363281 328.007812 241.664062 328.207031 C 241.96875 328.410156 242.289062 328.582031 242.625 328.722656 C 242.960938 328.863281 243.308594 328.96875 243.664062 329.039062 C 244.023438 329.109375 244.382812 329.144531 244.746094 329.144531 L 254.039062 329.144531 L 254.039062 406.894531 C 254.039062 407.828125 254.085938 408.765625 254.179688 409.695312 C 254.269531 410.628906 254.410156 411.554688 254.589844 412.472656 C 254.773438 413.390625 255.003906 414.296875 255.273438 415.195312 C 255.546875 416.089844 255.859375 416.972656 256.21875 417.835938 C 256.578125 418.703125 256.976562 419.546875 257.417969 420.375 C 257.859375 421.199219 258.339844 422.003906 258.859375 422.78125 C 259.378906 423.5625 259.9375 424.3125 260.53125 425.039062 C 261.121094 425.761719 261.75 426.457031 262.410156 427.117188 C 263.074219 427.78125 263.765625 428.410156 264.488281 429.003906 C 265.210938 429.597656 265.960938 430.15625 266.738281 430.679688 C 267.515625 431.199219 268.316406 431.679688 269.140625 432.125 C 269.964844 432.566406 270.8125 432.964844 271.675781 433.324219 C 272.539062 433.6875 273.417969 434.003906 274.3125 434.273438 C 275.207031 434.546875 276.113281 434.777344 277.03125 434.960938 C 277.949219 435.144531 278.875 435.285156 279.804688 435.378906 C 280.734375 435.472656 281.667969 435.519531 282.605469 435.519531 L 284.378906 435.519531 C 285.320312 435.519531 286.257812 435.472656 287.195312 435.378906 C 288.128906 435.285156 289.058594 435.148438 289.980469 434.964844 C 290.902344 434.78125 291.816406 434.550781 292.714844 434.277344 C 293.617188 434.003906 294.5 433.6875 295.367188 433.328125 C 296.238281 432.964844 297.085938 432.5625 297.917969 432.121094 C 298.746094 431.675781 299.550781 431.195312 300.335938 430.671875 C 301.117188 430.148438 301.871094 429.589844 302.597656 428.992188 C 303.328125 428.394531 304.023438 427.765625 304.6875 427.097656 C 305.355469 426.433594 305.984375 425.738281 306.582031 425.011719 C 307.179688 424.28125 307.742188 423.527344 308.265625 422.746094 C 308.789062 421.964844 309.273438 421.15625 309.71875 420.328125 C 310.164062 419.5 310.566406 418.648438 310.925781 417.78125 C 311.289062 416.910156 311.609375 416.023438 311.882812 415.125 C 312.15625 414.222656 312.386719 413.3125 312.574219 412.390625 C 312.757812 411.464844 312.898438 410.535156 312.992188 409.597656 C 313.089844 408.664062 313.136719 407.722656 313.140625 406.78125 L 313.140625 329.035156 L 322.402344 329.035156 C 322.769531 329.035156 323.128906 329 323.484375 328.925781 C 323.84375 328.855469 324.191406 328.75 324.527344 328.609375 C 324.863281 328.472656 325.183594 328.300781 325.484375 328.097656 C 325.789062 327.894531 326.066406 327.664062 326.324219 327.40625 C 326.582031 327.148438 326.8125 326.867188 327.015625 326.566406 C 327.21875 326.261719 327.386719 325.941406 327.527344 325.605469 C 327.667969 325.269531 327.773438 324.921875 327.84375 324.5625 C 327.914062 324.207031 327.949219 323.84375 327.949219 323.480469 L 327.949219 303.210938 C 327.949219 302.117188 327.894531 301.027344 327.789062 299.941406 C 327.679688 298.855469 327.519531 297.773438 327.308594 296.703125 C 327.09375 295.632812 326.828125 294.574219 326.511719 293.527344 C 326.195312 292.484375 325.828125 291.457031 325.410156 290.445312 C 324.996094 289.4375 324.527344 288.449219 324.015625 287.488281 C 323.503906 286.523438 322.941406 285.585938 322.335938 284.675781 C 321.730469 283.769531 321.082031 282.890625 320.394531 282.046875 C 319.703125 281.199219 318.972656 280.390625 318.199219 279.617188 C 317.429688 278.84375 316.625 278.109375 315.78125 277.414062 C 314.941406 276.71875 314.066406 276.070312 313.160156 275.460938 C 312.253906 274.851562 311.320312 274.289062 310.359375 273.769531 C 309.398438 273.253906 308.417969 272.785156 307.410156 272.363281 C 306.402344 271.941406 305.378906 271.570312 304.335938 271.25 C 303.292969 270.929688 302.234375 270.660156 301.164062 270.445312 C 300.097656 270.226562 299.019531 270.0625 297.933594 269.953125 C 296.847656 269.839844 295.761719 269.78125 294.667969 269.777344 L 288.484375 269.777344 C 289.832031 265.710938 291.5 261.777344 293.488281 257.980469 C 295.472656 254.183594 297.75 250.570312 300.324219 247.144531 C 302.894531 243.71875 305.726562 240.519531 308.816406 237.554688 C 311.90625 234.585938 315.214844 231.890625 318.742188 229.460938 C 322.65625 226.871094 326.773438 224.648438 331.085938 222.800781 C 335.402344 220.949219 339.847656 219.503906 344.421875 218.453125 C 348.996094 217.40625 353.628906 216.777344 358.316406 216.5625 C 363.003906 216.351562 367.675781 216.558594 372.324219 217.1875 C 379.492188 217.957031 386.4375 219.632812 393.171875 222.210938 C 399.902344 224.792969 406.191406 228.1875 412.039062 232.402344 C 416.949219 236.066406 421.371094 240.242188 425.3125 244.933594 C 429.25 249.625 432.601562 254.703125 435.367188 260.171875 C 437.003906 263.421875 438.238281 266.816406 439.074219 270.359375 C 439.90625 273.902344 440.316406 277.496094 440.300781 281.136719 L 440.300781 328.867188 L 405.605469 328.867188 C 404.488281 328.867188 403.375 328.921875 402.265625 329.035156 C 401.152344 329.144531 400.046875 329.308594 398.953125 329.527344 C 397.859375 329.746094 396.777344 330.019531 395.707031 330.34375 C 394.636719 330.667969 393.589844 331.046875 392.554688 331.472656 C 391.523438 331.902344 390.515625 332.378906 389.53125 332.90625 C 388.546875 333.433594 387.589844 334.011719 386.660156 334.632812 C 385.730469 335.253906 384.835938 335.917969 383.972656 336.628906 C 383.109375 337.335938 382.28125 338.085938 381.492188 338.878906 C 380.703125 339.667969 379.953125 340.496094 379.246094 341.359375 C 378.535156 342.226562 377.871094 343.121094 377.25 344.050781 C 376.628906 344.980469 376.054688 345.941406 375.53125 346.925781 C 375.003906 347.914062 374.523438 348.921875 374.097656 349.953125 C 373.667969 350.988281 373.292969 352.039062 372.96875 353.109375 C 372.644531 354.179688 372.371094 355.261719 372.152344 356.359375 C 371.933594 357.457031 371.769531 358.5625 371.660156 359.675781 C 371.550781 360.785156 371.492188 361.902344 371.492188 363.019531 L 371.492188 399.949219 C 371.492188 401.070312 371.550781 402.1875 371.660156 403.296875 C 371.769531 404.410156 371.933594 405.515625 372.152344 406.613281 C 372.371094 407.710938 372.644531 408.792969 372.96875 409.863281 C 373.292969 410.9375 373.667969 411.988281 374.097656 413.019531 C 374.523438 414.054688 375 415.0625 375.527344 416.050781 C 376.054688 417.039062 376.628906 417.996094 377.25 418.925781 C 377.871094 419.855469 378.535156 420.753906 379.242188 421.617188 C 379.953125 422.484375 380.703125 423.3125 381.492188 424.101562 C 382.28125 424.894531 383.109375 425.644531 383.972656 426.355469 C 384.835938 427.066406 385.730469 427.730469 386.660156 428.355469 C 387.585938 428.976562 388.542969 429.550781 389.527344 430.078125 C 390.515625 430.605469 391.523438 431.085938 392.554688 431.515625 C 393.585938 431.945312 394.636719 432.320312 395.707031 432.648438 C 396.773438 432.972656 397.855469 433.246094 398.953125 433.464844 C 400.046875 433.6875 401.152344 433.851562 402.261719 433.960938 C 403.375 434.074219 404.488281 434.128906 405.605469 434.132812 L 471.28125 434.132812 C 472.398438 434.132812 473.515625 434.078125 474.628906 433.96875 C 475.742188 433.859375 476.847656 433.695312 477.945312 433.476562 C 479.042969 433.257812 480.125 432.984375 481.195312 432.660156 C 482.265625 432.335938 483.316406 431.960938 484.351562 431.53125 C 485.382812 431.101562 486.394531 430.625 487.382812 430.097656 C 488.367188 429.570312 489.324219 428.996094 490.257812 428.371094 C 491.1875 427.75 492.082031 427.085938 492.949219 426.375 C 493.8125 425.664062 494.640625 424.914062 495.433594 424.121094 C 496.222656 423.332031 496.972656 422.503906 497.683594 421.636719 C 498.394531 420.773438 499.058594 419.875 499.683594 418.941406 C 500.304688 418.011719 500.878906 417.054688 501.40625 416.066406 C 501.933594 415.078125 502.414062 414.066406 502.839844 413.035156 C 503.269531 412 503.648438 410.945312 503.972656 409.875 C 504.296875 408.804688 504.570312 407.71875 504.789062 406.621094 C 505.007812 405.523438 505.171875 404.417969 505.28125 403.300781 C 505.394531 402.1875 505.449219 401.070312 505.449219 399.949219 Z M 282.242188 318.039062 L 298.605469 282.300781 C 298.734375 282.023438 298.835938 281.738281 298.914062 281.441406 C 301.140625 281.875 303.25 282.644531 305.234375 283.746094 L 288.179688 318.039062 Z M 270.039062 318.039062 L 261.71875 318.039062 L 278.082031 282.300781 C 278.265625 281.882812 278.394531 281.449219 278.472656 280.996094 L 286.792969 280.996094 Z M 266.269531 281.664062 L 250.292969 316.398438 L 250.292969 302.097656 C 250.296875 300.933594 250.390625 299.773438 250.585938 298.621094 C 250.777344 297.46875 251.066406 296.34375 251.445312 295.238281 C 251.828125 294.136719 252.296875 293.070312 252.851562 292.046875 C 253.410156 291.019531 254.046875 290.046875 254.765625 289.128906 C 255.484375 288.207031 256.273438 287.355469 257.136719 286.566406 C 257.996094 285.777344 258.914062 285.066406 259.894531 284.433594 C 260.871094 283.796875 261.898438 283.246094 262.964844 282.78125 C 264.035156 282.316406 265.136719 281.945312 266.269531 281.664062 Z M 302.046875 406.78125 C 302.046875 407.359375 302.015625 407.9375 301.957031 408.515625 C 301.902344 409.089844 301.816406 409.664062 301.703125 410.230469 C 301.589844 410.796875 301.449219 411.359375 301.28125 411.914062 C 301.109375 412.46875 300.914062 413.011719 300.695312 413.546875 C 300.472656 414.082031 300.226562 414.605469 299.953125 415.113281 C 299.679688 415.625 299.382812 416.121094 299.058594 416.601562 C 298.738281 417.082031 298.394531 417.546875 298.027344 417.996094 C 297.660156 418.441406 297.273438 418.871094 296.863281 419.28125 C 296.453125 419.691406 296.027344 420.078125 295.578125 420.445312 C 295.132812 420.8125 294.667969 421.15625 294.1875 421.480469 C 293.707031 421.800781 293.210938 422.097656 292.703125 422.371094 C 292.191406 422.644531 291.671875 422.894531 291.136719 423.117188 C 290.601562 423.335938 290.058594 423.53125 289.503906 423.703125 C 288.953125 423.871094 288.390625 424.011719 287.824219 424.125 C 287.257812 424.238281 286.6875 424.324219 286.109375 424.382812 C 285.535156 424.4375 284.957031 424.46875 284.378906 424.46875 L 282.605469 424.46875 C 282.03125 424.46875 281.460938 424.441406 280.890625 424.382812 C 280.320312 424.324219 279.753906 424.242188 279.195312 424.128906 C 278.632812 424.015625 278.078125 423.875 277.53125 423.707031 C 276.984375 423.542969 276.445312 423.347656 275.914062 423.128906 C 275.386719 422.90625 274.871094 422.664062 274.367188 422.390625 C 273.859375 422.121094 273.371094 421.824219 272.894531 421.507812 C 272.417969 421.1875 271.960938 420.847656 271.519531 420.480469 C 271.074219 420.117188 270.652344 419.734375 270.246094 419.328125 C 269.84375 418.921875 269.460938 418.496094 269.097656 418.054688 C 268.734375 417.609375 268.394531 417.152344 268.074219 416.671875 C 267.757812 416.195312 267.464844 415.707031 267.195312 415.199219 C 266.925781 414.695312 266.679688 414.175781 266.460938 413.648438 C 266.242188 413.117188 266.050781 412.578125 265.882812 412.03125 C 265.71875 411.480469 265.578125 410.925781 265.46875 410.363281 C 265.355469 409.800781 265.273438 409.234375 265.214844 408.664062 C 265.160156 408.09375 265.132812 407.523438 265.132812 406.949219 L 265.132812 329.199219 L 302.046875 329.199219 Z M 316.828125 317.925781 L 300.578125 317.925781 L 313.613281 291.992188 C 314.65625 293.699219 315.453125 295.511719 316.003906 297.4375 C 316.554688 299.359375 316.839844 301.320312 316.855469 303.320312 Z M 405.578125 339.863281 L 471.28125 339.863281 C 472.035156 339.863281 472.785156 339.902344 473.535156 339.976562 C 474.285156 340.050781 475.03125 340.164062 475.769531 340.308594 C 476.507812 340.457031 477.238281 340.640625 477.960938 340.863281 C 478.683594 341.082031 479.390625 341.335938 480.085938 341.625 C 480.78125 341.914062 481.460938 342.238281 482.128906 342.59375 C 482.792969 342.949219 483.4375 343.335938 484.0625 343.753906 C 484.691406 344.175781 485.296875 344.625 485.878906 345.101562 C 486.460938 345.582031 487.019531 346.085938 487.550781 346.621094 C 488.082031 347.15625 488.589844 347.714844 489.066406 348.296875 C 489.546875 348.878906 489.996094 349.484375 490.414062 350.113281 C 490.832031 350.738281 491.21875 351.386719 491.574219 352.050781 C 491.929688 352.714844 492.253906 353.398438 492.542969 354.09375 C 492.832031 354.792969 493.085938 355.5 493.304688 356.222656 C 493.523438 356.945312 493.707031 357.675781 493.855469 358.414062 C 494 359.15625 494.113281 359.902344 494.1875 360.652344 C 494.261719 361.402344 494.300781 362.15625 494.300781 362.910156 L 494.300781 374.820312 L 469.921875 374.820312 C 468.9375 374.828125 468.019531 375.078125 467.167969 375.574219 C 466.316406 376.070312 465.644531 376.746094 465.152344 377.597656 L 453.613281 397.035156 L 430.957031 349.941406 C 430.851562 349.722656 430.730469 349.515625 430.597656 349.3125 C 430.464844 349.109375 430.320312 348.917969 430.164062 348.734375 C 430.003906 348.550781 429.835938 348.378906 429.65625 348.214844 C 429.472656 348.054688 429.285156 347.90625 429.082031 347.769531 C 428.882812 347.632812 428.675781 347.511719 428.460938 347.402344 C 428.246094 347.292969 428.023438 347.199219 427.792969 347.117188 C 427.566406 347.039062 427.332031 346.972656 427.097656 346.925781 C 426.859375 346.875 426.621094 346.839844 426.378906 346.824219 C 426.136719 346.804688 425.898438 346.800781 425.65625 346.816406 C 425.414062 346.828125 425.175781 346.859375 424.9375 346.902344 C 424.699219 346.949219 424.464844 347.007812 424.234375 347.082031 C 424.003906 347.160156 423.78125 347.25 423.5625 347.351562 C 423.34375 347.457031 423.132812 347.578125 422.933594 347.710938 C 422.730469 347.839844 422.535156 347.984375 422.351562 348.144531 C 422.167969 348.300781 421.996094 348.46875 421.835938 348.652344 C 421.671875 348.832031 421.523438 349.019531 421.386719 349.21875 L 401.558594 378.070312 L 382.558594 378.070312 L 382.558594 363.019531 C 382.558594 362.265625 382.597656 361.511719 382.671875 360.761719 C 382.746094 360.007812 382.859375 359.261719 383.007812 358.523438 C 383.15625 357.78125 383.339844 357.050781 383.558594 356.328125 C 383.777344 355.605469 384.03125 354.894531 384.320312 354.199219 C 384.609375 353.5 384.933594 352.820312 385.289062 352.15625 C 385.644531 351.488281 386.035156 350.84375 386.453125 350.214844 C 386.871094 349.585938 387.320312 348.980469 387.800781 348.398438 C 388.28125 347.816406 388.785156 347.257812 389.320312 346.722656 C 389.851562 346.1875 390.410156 345.683594 390.996094 345.203125 C 391.578125 344.726562 392.183594 344.277344 392.8125 343.855469 C 393.4375 343.4375 394.085938 343.050781 394.75 342.695312 C 395.414062 342.339844 396.097656 342.015625 396.792969 341.726562 C 397.488281 341.4375 398.199219 341.183594 398.921875 340.964844 C 399.644531 340.746094 400.375 340.5625 401.113281 340.417969 C 401.851562 340.269531 402.597656 340.160156 403.347656 340.085938 C 404.101562 340.011719 404.851562 339.972656 405.605469 339.972656 Z M 471.28125 423.027344 L 405.605469 423.027344 C 404.851562 423.023438 404.101562 422.984375 403.351562 422.910156 C 402.601562 422.832031 401.855469 422.722656 401.117188 422.574219 C 400.375 422.425781 399.648438 422.238281 398.925781 422.019531 C 398.203125 421.796875 397.496094 421.542969 396.800781 421.253906 C 396.101562 420.964844 395.421875 420.640625 394.757812 420.285156 C 394.09375 419.925781 393.449219 419.539062 392.820312 419.117188 C 392.195312 418.699219 391.589844 418.25 391.007812 417.769531 C 390.425781 417.289062 389.867188 416.785156 389.335938 416.25 C 388.804688 415.714844 388.296875 415.15625 387.820312 414.574219 C 387.339844 413.988281 386.894531 413.382812 386.472656 412.753906 C 386.054688 412.128906 385.667969 411.480469 385.3125 410.816406 C 384.957031 410.148438 384.636719 409.46875 384.347656 408.769531 C 384.058594 408.074219 383.804688 407.363281 383.585938 406.640625 C 383.363281 405.917969 383.179688 405.1875 383.035156 404.449219 C 382.886719 403.707031 382.773438 402.960938 382.699219 402.210938 C 382.625 401.457031 382.585938 400.707031 382.585938 399.949219 L 382.585938 389.175781 L 404.496094 389.175781 C 405.414062 389.175781 406.273438 388.964844 407.082031 388.535156 C 407.894531 388.109375 408.554688 387.515625 409.074219 386.761719 L 425.019531 363.382812 L 447.984375 411.03125 C 448.203125 411.484375 448.476562 411.898438 448.808594 412.277344 C 449.140625 412.65625 449.515625 412.984375 449.9375 413.261719 C 450.355469 413.535156 450.804688 413.75 451.285156 413.90625 C 451.761719 414.058594 452.253906 414.148438 452.753906 414.167969 L 452.976562 414.167969 C 453.960938 414.160156 454.878906 413.910156 455.730469 413.414062 C 456.582031 412.917969 457.253906 412.246094 457.746094 411.390625 L 472.945312 385.957031 L 494.355469 385.957031 L 494.355469 399.839844 C 494.359375 400.597656 494.328125 401.355469 494.253906 402.109375 C 494.183594 402.867188 494.078125 403.617188 493.933594 404.359375 C 493.789062 405.105469 493.605469 405.839844 493.390625 406.566406 C 493.171875 407.292969 492.917969 408.007812 492.632812 408.710938 C 492.34375 409.414062 492.023438 410.097656 491.667969 410.769531 C 491.3125 411.4375 490.925781 412.089844 490.503906 412.722656 C 490.085938 413.351562 489.636719 413.964844 489.15625 414.550781 C 488.675781 415.136719 488.171875 415.699219 487.636719 416.238281 C 487.101562 416.773438 486.539062 417.285156 485.957031 417.765625 C 485.371094 418.25 484.761719 418.703125 484.132812 419.125 C 483.503906 419.546875 482.855469 419.933594 482.1875 420.292969 C 481.519531 420.652344 480.835938 420.976562 480.136719 421.265625 C 479.433594 421.558594 478.722656 421.8125 477.996094 422.03125 C 477.273438 422.253906 476.539062 422.4375 475.796875 422.585938 C 475.050781 422.730469 474.304688 422.84375 473.550781 422.917969 C 472.796875 422.988281 472.039062 423.027344 471.28125 423.027344 Z M 471.28125 423.027344 " fill-opacity="1" fill-rule="nonzero"/></g></svg>