<svg id="Capa_1" enable-background="new 0 0 507.773 507.773" height="512" viewBox="0 0 507.773 507.773" width="512" xmlns="http://www.w3.org/2000/svg">
<path fill="#FFFFFF" id="XMLID_10_" d="m253.778 104.059 103.03-39.7h.003l-102.923-34.798-105.436 35.648h.006z"/>
<path fill="#FFFFFF" id="XMLID_41_" d="m238.888 130.539-111.94-41.29-.004-.01v123.11l111.944 42.612z"/>
<path fill="#FFFFFF" id="XMLID_48_" d="m268.888 130.379v123.821l111.944-42.612v-124.338l-.004.009z"/>
<path fill="#FFFFFF" id="XMLID_62_" d="m111.948 336.829-111.948-44.029v146.408l111.949 39.004-.001-.003z"/>
<path fill="#FFFFFF" id="XMLID_78_" d="m141.948 336.829v141.38l96.94-33.775v-145.735z"/>
<path fill="#FFFFFF" id="XMLID_80_" d="m212.207 276.905-105.974-40.34-84.013 32.735 104.728 41.189z"/>
<path fill="#FFFFFF" id="XMLID_83_" d="m380.833 310.489 104.719-41.189-84.999-33.119-105.968 40.337z"/>
<path fill="#FFFFFF" id="XMLID_85_" d="m395.833 478.209 111.94-39.001v-146.409l-111.94 44.03z"/>
<path fill="#FFFFFF" id="XMLID_86_" d="m365.833 336.829-96.945-38.128v145.734l96.946 33.777-.001-.003z"/></svg>